<?xml version="1.0" encoding="utf-8"?>
<!-- Generator: Adobe Illustrator 19.0.0, SVG Export Plug-In . SVG Version: 6.00 Build 0)  -->
<svg version="1.1" id="Layer_1" xmlns="http://www.w3.org/2000/svg" xmlns:xlink="http://www.w3.org/1999/xlink" x="0px" y="0px"
	 viewBox="0 0 96 96" style="enable-background:new 0 0 96 96;" xml:space="preserve">
<g id="XMLID_1_">
	<path id="XMLID_3_" d="M80,31L63.2,48.1c-0.1,0.1-0.1,0.3,0,0.4l11.8,12.5c0.8,0.8,0.8,2.1,0,2.9c-0.4,0.4-0.9,0.6-1.4,0.6
		c-0.5,0-1-0.2-1.4-0.6L60.3,51.5c-0.1-0.1-0.3-0.1-0.5,0L57,54.4c-2.4,2.4-5.6,3.8-9,3.8c-3.5,0-6.7-1.4-9.2-3.9l-2.8-2.8
		c-0.1-0.1-0.3-0.1-0.5,0L24,64c-0.4,0.4-0.9,0.6-1.4,0.6c-0.5,0-1-0.2-1.4-0.6c-0.8-0.8-0.8-2.1,0-2.9l11.8-12.5
		c0.1-0.1,0.1-0.3,0-0.4L16,31c-0.2-0.2-0.5-0.1-0.5,0.2v34.3c0,2.8,2.3,5,5,5h55c2.8,0,5-2.3,5-5V31.2C80.5,31,80.2,30.8,80,31z"/>
	<path id="XMLID_4_" d="M48,54.1c2.3,0,4.5-0.9,6.1-2.6l24.5-25c-0.9-0.7-1.9-1.1-3.1-1.1h-55c-1.2,0-2.3,0.4-3.1,1.1l24.5,25
		C43.5,53.2,45.7,54.1,48,54.1z"/>
</g>
</svg>
